<svg xmlns="http://www.w3.org/2000/svg" viewBox="0 0 600 300">
	<path fill="#d33682" d="m 123.37891,179.81288 31.79308,-23.09708 4.8e-4,33.42795 z"/>
	<path fill="#dc322f" d="m 135.52248,217.1888 -12.14203,-37.37439 31.79202,10.32934 z"/>
	<path fill="#859900" d="m 174.82167,217.18932 -39.29726,-0.002 19.64806,-27.04406 z"/>
	<path fill="#2aa198" d="m 186.96238,179.81288 -12.14496,37.37344 -19.64884,-27.04349 z"/>
	<path fill="#6c71c4" d="m 155.17293,156.71392 31.79126,23.09956 -31.79172,10.33027 z"/>
	<g fill="#073642">
		<path d="m 79.765639,60.417229 c -0.658991,0.0096 -1.315314,0.03639 -1.978828,0.06282 C 66.247454,60.93955 55.365777,65.546745 45.6387,72.2902 a 2.0104395,2.0104395 0 0 0 -0.769544,2.261519 l 3.973362,12.2813 a 2.0104395,2.0104395 0 0 0 1.444859,1.334924 c 4.97e-4,1.21e-4 0.04342,-0.001 0.04709,0 0.02015,0.0066 0.09755,0.03216 0.25128,0.04709 a 2.0104395,2.0104395 0 0 0 0.06282,0 2.0104395,2.0104395 0 0 0 0.392625,-0.01568 c 0.02257,-0.0025 0.06879,-0.01467 0.07852,-0.01568 a 2.0104395,2.0104395 0 0 0 0.04709,0 c 2e-5,-5e-6 0.0288,-0.01457 0.03141,-0.01568 a 2.0104395,2.0104395 0 0 0 0.628199,-0.25128 c 0.01669,-0.01035 0.03041,-0.02111 0.04709,-0.03141 a 2.0104395,2.0104395 0 0 0 0.06282,-0.03141 c 11.907311,-7.346271 21.629739,-9.657925 29.226983,-8.747679 7.621085,0.913106 13.278932,4.98511 17.322602,11.087722 8.08734,12.205223 9.03024,32.689803 2.65414,48.905333 -4.743773,12.06426 -7.294143,18.38595 -8.731971,21.89275 -0.0052,0.0126 -0.02628,0.066 -0.03141,0.0785 -0.620585,1.33741 -1.18984,2.69683 -1.727548,4.0833 a 2.0104395,2.0104395 0 0 0 -0.01563,0.0314 c -0.0067,0.0174 -0.02468,0.0297 -0.03141,0.0471 1.5e-5,-3e-5 -0.01377,0.0418 -0.01568,0.0471 a 2.0104395,2.0104395 0 0 0 0,0.0157 c -0.0084,0.022 -0.02297,0.0409 -0.03141,0.0628 a 2.0104395,2.0104395 0 0 1 0.01568,0 c -0.03885,0.12233 -0.06274,0.19916 -0.09423,0.2984 0.0288,-0.10093 0.03428,-0.15335 0.06282,-0.23558 a 2.0104395,2.0104395 0 0 0 -0.09423,0.2984 2.0104395,2.0104395 0 0 0 0,0.0314 c -0.001,0.004 -0.01568,0.0314 -0.01568,0.0314 -0.001,0.005 5.03e-4,0.0116 0,0.0157 a 2.0104395,2.0104395 0 0 0 0,0.0157 c -0.001,0.006 0.001,0.009 0,0.0157 -1.96e-4,0.003 2.52e-4,0.0126 0,0.0157 a 2.0104395,2.0104395 0 0 0 -0.01568,0.15705 c -0.002,0.0619 -0.0025,0.14139 0,0.18846 a 2.0104395,2.0104395 0 0 0 0.03141,0.21987 2.0104395,2.0104395 0 0 0 1.350629,1.60191 l 26.19592,8.4964 a 2.0104395,2.0104395 0 0 0 1.80607,-0.28269 c 4.35031,-3.21015 8.71973,-6.41045 13.09796,-9.59575 a 2.0104395,2.0104395 0 0 0 0.83237,-1.61762 l 0,-37.84902 c -5e-4,-15.9004 -2.86584,-32.292398 -10.85215,-44.979083 -7.98631,-12.686685 -21.29608,-21.500898 -41.162772,-21.767114 -0.638527,-0.0085 -1.288317,-0.0096 -1.947418,0 z m 0.06282,4.020477 a 2.0104395,2.0104395 0 0 0 0.204165,0 c 0.546619,-0.0061 1.094188,-0.0072 1.633319,0 18.729857,0.250984 30.422907,8.160568 37.801907,19.882515 7.379,11.721947 10.23916,27.432059 10.23965,42.843209 l 0,36.8282 c -3.82104,2.78115 -7.64313,5.58195 -11.44893,8.38646 L 95.140823,164.8554 c 0.305666,-0.72235 0.595246,-1.45536 0.926594,-2.16729 a 2.0104395,2.0104395 0 0 0 0.03141,-0.0942 c 1.446924,-3.52813 4.014143,-9.90028 8.779093,-22.01839 6.83569,-17.38437 6.07416,-38.83092 -3.04677,-52.596007 C 97.270685,81.096939 90.452549,76.173609 81.634533,75.117098 73.342812,74.123643 63.424521,76.536105 51.90499,83.236577 l -2.732668,-8.417874 c 8.945351,-5.964282 18.662165,-9.915622 28.771539,-10.318177 0.638597,-0.02543 1.268425,-0.05378 1.884598,-0.06282 z"/>
		<path d="m 228.63322,60.417229 c -19.86669,0.266216 -33.17647,9.080428 -41.16277,21.767114 -7.98631,12.686685 -10.85163,29.078687 -10.85215,44.979087 l 0,37.83332 a 2.0104395,2.0104395 0 0 0 0.83237,1.63331 c 4.37455,3.18261 8.73631,6.38081 13.08225,9.59575 a 2.0104395,2.0104395 0 0 0 1.80607,0.28269 l 26.19592,-8.5121 a 2.0104395,2.0104395 0 0 0 1.2564,-2.62274 c -0.57302,-1.49377 -1.19901,-2.95901 -1.86889,-4.39739 l 0.0157,0 c -1.44227,-3.51882 -4.00722,-9.86117 -8.73197,-21.87705 -6.3761,-16.21553 -5.4332,-36.70011 2.65414,-48.905333 4.04367,-6.102612 9.70152,-10.174616 17.3226,-11.087722 7.62109,-0.913105 17.37844,1.409444 29.33692,8.810498 a 2.0104395,2.0104395 0 0 0 0.59679,0.25128 c 10e-4,5.03e-4 0.0148,-4.27e-4 0.0157,0 0.002,0.001 0.0314,0.01568 0.0314,0.01568 4.2e-4,1.86e-4 0.0157,0 0.0157,0 0.003,3.17e-4 0.0506,-0.0015 0.0628,0 a 2.0104395,2.0104395 0 0 0 0.0628,0.01568 2.0104395,2.0104395 0 0 0 0.40833,0.01568 2.0104395,2.0104395 0 0 0 0.3298,-0.04709 2.0104395,2.0104395 0 0 0 1.46057,-1.334924 l 3.97336,-12.281301 A 2.0104395,2.0104395 0 0 0 264.7075,72.29015 c -9.72707,-6.743456 -20.60874,-11.350651 -32.14811,-11.810151 -1.32866,-0.05291 -2.63072,-0.07967 -3.91054,-0.06282 a 2.0104395,2.0104395 0 0 0 -0.0157,0 z m 0.0157,4.020477 a 2.0104395,2.0104395 0 0 0 0.0314,0 c 1.20536,-0.01613 2.45188,0.01226 3.72208,0.06282 10.10938,0.402555 19.8262,4.353895 28.77154,10.318177 l -2.73267,8.417874 c -11.51953,-6.700472 -21.43782,-9.112934 -29.72954,-8.119479 -8.81802,1.056511 -15.63615,5.979841 -20.19661,12.862385 -9.12093,13.765087 -9.88246,35.211637 -3.04677,52.596007 4.72909,12.02691 7.29442,18.39425 8.74768,21.93987 a 2.0104395,2.0104395 0 0 0 0.0314,0.0785 c 0.34644,0.74162 0.63937,1.5075 0.958,2.26152 l -23.13345,7.52269 c -3.80091,-2.80818 -7.61311,-5.60481 -11.43323,-8.38646 l 0,-36.8282 c 5.1e-4,-15.41115 2.84495,-31.121262 10.22395,-42.843209 7.37469,-11.715102 19.07549,-19.622742 37.7862,-19.882515 z"/>
		<path d="m 138.75357,120.94425 a 2.0104395,2.0104395 0 0 0 -2.01023,2.01024 l 0,2.02595 0,34.92789 a 2.0104395,2.0104395 0 0 0 3.18811,1.63332 c 4.30058,-3.11517 8.59562,-6.23784 12.89379,-9.34447 a 2.0104395,2.0104395 0 0 0 0.83237,-1.63332 l 0,-24.46837 0,-3.141 a 2.0104395,2.0104395 0 0 0 -2.01024,-2.01024 l -12.8938,0 z m 2.01024,4.02048 8.87332,0 0,1.13076 0,23.44755 c -2.96132,2.14117 -5.91262,4.2941 -8.87332,6.43904 l 0,-31.00164 0,-0.0157 z"/>
		<path d="m 158.69891,120.94425 0,0.0942 a 2.0104395,2.0104395 0 0 0 -2.02594,2.01024 l 0,27.51514 a 2.0104395,2.0104395 0 0 0 0.83236,1.63332 c 4.30433,3.10833 8.6099,6.21656 12.9095,9.32876 a 2.0104395,2.0104395 0 0 0 3.18811,-1.63332 l 0,-34.91218 0,-2.02595 a 2.0104395,2.0104395 0 0 0 -2.01024,-2.01024 l -12.89379,0 z m 1.99453,4.02048 8.88903,0 0,0.0157 0,30.98594 c -2.96371,-2.14256 -5.92544,-4.28336 -8.88903,-6.42334 l 0,-24.5783 z"/>
		<path d="m 90.083816,170.77618 a 2.0104395,2.0104395 0 0 0 -1.774663,1.49197 c -1.522057,5.70569 -2.340043,11.69277 -2.340043,17.87228 0,21.71375 10.015646,41.12113 25.67766,53.80529 a 2.0104395,2.0104395 0 0 0 2.88971,-0.39262 l 16.19185,-22.28538 a 2.0104395,2.0104395 0 0 0 0.28269,-1.80608 c -4.26405,-12.90194 -8.44769,-25.83644 -12.62681,-38.77561 a 2.0104395,2.0104395 0 0 0 -1.28781,-1.28781 l -26.227334,-8.52781 a 2.0104395,2.0104395 0 0 0 -0.78525,-0.0942 z m 1.633319,4.58586 23.164855,7.53839 c 3.96966,12.2904 7.94723,24.57166 11.99861,36.8439 l -14.27583,19.64694 C 98.78828,227.43963 89.989587,209.85374 89.989587,190.14043 c 0,-5.08935 0.626129,-10.02929 1.727548,-14.77839 z"/>
		<path d="m 220.10541,170.77618 a 2.0104395,2.0104395 0 0 0 -0.6439,0.0942 l -26.21163,8.52781 a 2.0104395,2.0104395 0 0 0 -1.28781,1.28781 c -4.18188,12.9482 -8.35843,25.89135 -12.64251,38.79132 a 2.0104395,2.0104395 0 0 0 0.28269,1.82178 l 16.19184,22.26967 a 2.0104395,2.0104395 0 0 0 2.88972,0.37692 c 15.66764,-12.68408 25.69336,-32.08698 25.69336,-53.80529 0,-6.17906 -0.83614,-12.17248 -2.35575,-17.87228 a 2.0104395,2.0104395 0 0 0 -1.91601,-1.49197 z m -1.49197,4.60156 c 1.10321,4.74832 1.74325,9.6788 1.74325,14.76269 0,19.72118 -8.80467,37.31451 -22.63088,49.26655 l -14.26013,-19.64694 c 4.06891,-12.27142 8.02971,-24.56878 11.99861,-36.85961 l 23.14915,-7.52269 z"/>
		<path d="m 134.62316,222.21002 a 2.0104395,2.0104395 0 0 0 -1.42915,0.81666 l -16.20755,22.30108 a 2.0104395,2.0104395 0 0 0 0.53397,2.87401 c 10.834,7.03971 23.76626,11.13484 37.64486,11.13484 13.87561,0 26.82627,-4.09632 37.66056,-11.13484 a 2.0104395,2.0104395 0 0 0 0.51826,-2.85831 l -16.20754,-22.31678 a 2.0104395,2.0104395 0 0 0 -1.61762,-0.81666 l -40.70733,0 a 2.0104395,2.0104395 0 0 0 -0.18846,0 z m 1.20929,4.02047 38.66568,0 14.30724,19.70976 c -9.82397,5.93647 -21.31773,9.37588 -33.64008,9.37588 -12.32362,0 -23.79996,-3.45191 -33.62438,-9.39158 l 14.29154,-19.69406 z"/>
		<path d="m 85.74924,215.5511 a 2.0104395,2.0104395 0 0 0 -1.413449,0.81666 c -8.398123,11.38334 -23.651712,35.89886 -23.651712,64.94013 a 2.0104395,2.0104395 0 0 0 2.434273,1.96315 c 18.36885,-3.86559 33.334307,-16.41963 46.847978,-33.67152 a 2.0104395,2.0104395 0 0 0 -0.34551,-2.8269 C 99.845328,239.02116 92.395641,228.51114 87.822298,216.82321 A 2.0104395,2.0104395 0 0 0 85.74924,215.5511 z m -0.21987,6.10924 c 4.599415,10.32956 11.377261,19.65457 20.03956,26.94976 -12.20256,15.21328 -25.326744,25.99495 -40.770144,30.04362 0.827499,-24.38049 12.694771,-45.45427 20.730584,-56.99338 z"/>
		<path d="m 224.28294,215.58251 a 2.0104395,2.0104395 0 0 0 -1.72755,1.2564 c -4.68829,11.54574 -12.35417,21.92649 -22.00269,29.77666 a 2.0104395,2.0104395 0 0 0 -0.3141,2.79549 c 13.55137,17.34582 28.55655,29.98097 46.98933,33.85998 a 2.0104395,2.0104395 0 0 0 2.41857,-1.96315 c 0,-29.01308 -15.21731,-53.51104 -23.62031,-64.90872 a 2.0104395,2.0104395 0 0 0 -1.74325,-0.81666 z m 0.53397,6.06213 c 8.03574,11.53618 19.90119,32.62405 20.73058,57.00908 -15.50765,-4.06616 -28.68205,-14.9195 -40.9272,-30.23208 8.5438,-7.33404 15.47607,-16.54145 20.19662,-26.777 z"/>
		<path d="m 155.02394,154.70998 a 2.0104395,2.0104395 0 0 0 -1.03653,0.37692 l -31.78689,23.10204 a 2.0104395,2.0104395 0 0 0 -0.73814,2.24581 l 12.15566,37.37787 a 2.0104395,2.0104395 0 0 0 1.90031,1.38204 l 39.29388,0 a 2.0104395,2.0104395 0 0 0 1.91601,-1.38204 l 12.13995,-37.37787 a 2.0104395,2.0104395 0 0 0 -0.72243,-2.24581 L 156.35887,155.0869 a 2.0104395,2.0104395 0 0 0 -1.33493,-0.37692 z m 0.14135,4.49162 29.43114,21.3902 -11.22906,34.58238 -36.38846,0 -11.22907,-34.59809 29.41545,-21.37449 z"/>
		<path d="M 155.1967,1.3995125e-4 A 2.0104395,2.0104395 0 0 0 153.57908,0.78538936 c 0,0 -23.87158,30.42982464 -23.87158,61.70489864 0,0.956049 -0.0382,1.926652 -0.0942,2.921127 a 2.0104395,2.0104395 0 0 0 2.5128,2.057354 c 7.35659,-1.931779 15.07379,-2.968243 23.03922,-2.968243 7.96215,0 15.68504,1.037831 23.03921,2.968243 a 2.0104395,2.0104395 0 0 0 2.5128,-2.057354 c -0.0552,-0.979935 -0.0785,-1.95071 -0.0785,-2.921127 0,-31.275562 -23.88729,-61.70489864 -23.88729,-61.70489864 A 2.0104395,2.0104395 0 0 0 155.1967,1.3995125e-4 z M 155.16529,5.5125908 c 4.02657,5.5690692 21.45301,31.0060192 21.45301,56.9776972 0,0.16308 0.0142,0.32405 0.0157,0.486854 -6.90125,-1.605713 -14.08189,-2.497093 -21.46872,-2.497093 -7.38627,0 -14.55336,0.891863 -21.45301,2.497093 0.002,-0.164357 0.0157,-0.321502 0.0157,-0.486854 0,-25.972111 17.41261,-51.408643 21.43731,-56.9776972 z"/>
		<path d="m 40.754449,76.452022 a 2.0104395,2.0104395 0 0 0 -1.177874,0.455445 l -0.0157,-0.0157 C 27.771238,86.577684 17.94567,99.12809 11.024906,110.79883 4.1041426,122.46957 4.573125e-6,133.03115 4.573125e-6,139.83735 A 2.0104395,2.0104395 0 0 0 1.3820435,141.73766 c 36.1911325,12.07987 71.9367865,2.21328 97.1039415,-17.07132 0.06546,-0.0502 0.138852,-0.0911 0.204165,-0.14135 a 2.0104395,2.0104395 0 0 0 -2.245813,-3.31375 c 0,0 -16.181732,9.56275 -32.744901,0 C 42.914169,109.21086 42.843212,78.462261 42.843212,78.462261 a 2.0104395,2.0104395 0 0 0 0,-0.01568 2.0104395,2.0104395 0 0 0 -2.088763,-1.994534 z m -1.696139,6.187765 c 0.613957,8.75674 3.919101,31.254703 22.630888,42.057963 8.330594,4.80967 16.503098,5.2137 23.086332,4.28746 C 62.120952,142.12789 33.357545,147.61082 4.1461214,138.36109 4.7331161,132.91612 8.3626369,123.18291 14.495709,112.84048 20.59525,102.5546 29.071179,91.545526 39.05831,82.639787 z"/>
		<path d="m 269.40337,76.452022 a 2.0104395,2.0104395 0 0 0 -1.91601,1.994534 2.0104395,2.0104395 0 0 0 0,0.01568 c 0,0 -0.071,30.748595 -20.85622,42.748975 -16.56317,9.56276 -32.7449,0 -32.7449,0 a 2.0104395,2.0104395 0 0 0 -2.24582,3.31376 c 0.0653,0.0503 0.13871,0.0912 0.20417,0.14134 25.16715,19.2846 60.92852,29.1512 97.11965,17.07132 a 2.0104395,2.0104395 0 0 0 1.36633,-1.9003 c 0,-6.80621 -4.10414,-17.36778 -11.0249,-29.03852 C 292.3849,99.128065 282.55934,86.577659 270.7697,76.891737 l -0.0157,0.01568 a 2.0104395,2.0104395 0 0 0 -1.35062,-0.455445 z m 1.86889,6.187765 c 9.98714,8.905739 18.47877,19.914813 24.57831,30.200693 6.13307,10.34243 9.74689,20.07564 10.33388,25.52061 -29.2076,9.24481 -57.97771,3.76513 -80.62941,-9.37588 6.58471,0.92796 14.75193,0.52441 23.08634,-4.28746 18.71178,-10.80326 22.01693,-33.301223 22.63088,-42.057963 z"/>
		<path d="m 132.33023,258.9911 a 2.0104395,2.0104395 0 0 0 -0.92659,3.80061 c 12.89107,6.47219 21.75141,19.79987 21.75141,35.22628 a 2.0104395,2.0104395 0 0 0 4.02048,0 c 0,-15.07347 8.44465,-28.14208 20.85622,-34.77084 a 2.0104395,2.0104395 0 0 0 -1.52338,-3.69067 c -14.04484,4.24937 -29.51552,3.97743 -43.59705,-0.47115 a 2.0104395,2.0104395 0 0 0 -0.58109,-0.0942 z m 10.08261,6.48616 c 8.37546,1.4138 16.96278,1.47989 25.33214,0.15705 -5.80437,5.17194 -10.20689,11.85719 -12.57969,19.4585 -2.39843,-7.6774 -6.85895,-14.42361 -12.75245,-19.61555 z"/>
	</g>
	<g fill="#fdf6e3">
		<path d="m 286.36332,123.85964 -4.96306,-1.44555 0,-3.71025 12.38356,-2.65018 1.68647,0.86733 0,33.1995 c -2e-5,2.66625 0.14454,4.96308 0.43367,6.89046 0.28909,1.89529 0.81912,3.46933 1.5901,4.72213 0.77094,1.2207 1.83102,2.13621 3.18022,2.74655 1.34916,0.57822 3.08382,0.86733 5.20398,0.86733 1.44552,0 2.85895,-0.19274 4.24029,-0.57822 1.41339,-0.4176 2.71438,-0.89945 3.90299,-1.44555 1.22065,-0.57821 2.28072,-1.1725 3.18021,-1.78285 0.89942,-0.64246 1.55794,-1.18855 1.97558,-1.63829 l 0,-35.60874 -6.02312,-1.54192 0,-3.95118 13.78092,-2.74655 1.34918,0.81915 0,49.96789 5.78221,0 0,3.66206 c -0.48191,0.25699 -1.07619,0.49792 -1.78285,0.72278 -0.70677,0.25699 -1.47773,0.48185 -2.31289,0.67459 -0.80313,0.19274 -1.63834,0.35336 -2.50562,0.48185 -0.83526,0.12849 -1.63834,0.19274 -2.40925,0.19274 -1.54196,0 -2.76265,-0.3373 -3.66206,-1.01189 -0.86738,-0.64247 -1.30105,-1.68647 -1.30099,-3.13202 l 0,-3.95118 c -2.79478,2.44138 -5.73406,4.30453 -8.81787,5.58947 -3.05175,1.25281 -6.03923,1.87921 -8.96242,1.87921 -3.79058,0 -6.74593,-0.57822 -8.86605,-1.73466 -2.12015,-1.18857 -3.71026,-2.81079 -4.77031,-4.86669 -1.02796,-2.08801 -1.67043,-4.54545 -1.9274,-7.37231 -0.22488,-2.82684 -0.35337,-5.91068 -0.38549,-9.25153 l 0,-24.86348"/>
		<path d="m 343.12531,166.8407 7.80597,-1.01189 0,-39.22262 -6.84227,-3.75843 0,-2.98748 12.72085,-3.80662 2.26469,0.9637 0,7.4205 c 0.61032,-0.89941 1.52584,-1.84705 2.74655,-2.84292 1.25278,-0.99577 2.65015,-1.89522 4.1921,-2.69836 1.54189,-0.83515 3.14806,-1.50974 4.8185,-2.02377 1.67039,-0.54605 3.24443,-0.81909 4.72214,-0.81915 1.06003,6e-5 2.00767,0.0322 2.84292,0.0963 0.86729,0.0322 1.47763,0.11249 1.83103,0.24093 l 0,9.87793 c -0.51402,-0.19269 -1.04406,-0.38543 -1.59011,-0.57822 -0.54614,-0.22482 -1.15648,-0.4015 -1.83103,-0.53003 -0.6425,-0.16058 -1.38134,-0.28907 -2.21652,-0.38548 -0.83523,-0.0963 -1.79893,-0.14451 -2.8911,-0.14456 -2.60202,5e-5 -4.78641,0.33734 -6.55316,1.01189 -1.76681,0.64251 -3.38904,1.42952 -4.86669,2.36106 l 0,37.6807 13.73273,1.15644 0,4.09574 -30.8866,0 0,-4.09574"/>
		<path d="m 394.97241,158.31195 c -1e-5,-5.91068 -1e-5,-11.77319 0,-17.58755 0.0321,-5.84641 0.0482,-11.72498 0.0482,-17.63572 l -7.3723,0 0,-3.61388 c 1.41342,-0.3533 2.58591,-0.62636 3.5175,-0.81915 0.96369,-0.22481 1.75072,-0.46573 2.36107,-0.72277 0.64246,-0.28906 1.17249,-0.64241 1.5901,-1.06007 0.4176,-0.41755 0.80308,-1.0279 1.15645,-1.83103 0.22485,-0.54605 0.49789,-1.34913 0.81915,-2.40925 0.35333,-1.06002 0.67457,-2.13615 0.9637,-3.22841 0.32121,-1.12425 0.59426,-2.16826 0.81914,-3.13202 0.22485,-0.99576 0.3694,-1.70248 0.43367,-2.12014 l 4.77031,0 0,12.8654 16.19018,0 0,6.07132 -16.19018,0 0,24.28526 c -2e-5,3.72633 0.0482,6.76198 0.14456,9.10698 0.0963,2.31289 0.33727,4.12785 0.72277,5.4449 0.38546,1.31707 0.94762,2.21652 1.68648,2.69836 0.73881,0.44974 1.76676,0.6746 3.08385,0.67459 0.80305,1e-5 1.68644,-0.0803 2.65017,-0.24092 0.99579,-0.16061 1.94344,-0.35335 2.84292,-0.57822 0.93154,-0.22486 1.78281,-0.46578 2.5538,-0.72278 0.77093,-0.2891 1.34916,-0.56215 1.73467,-0.81914 l 1.49374,4.24029 c -0.73888,0.80308 -1.71864,1.50979 -2.9393,2.12014 -1.22071,0.61034 -2.55383,1.12432 -3.99935,1.54192 -1.41346,0.4176 -2.84295,0.72277 -4.28847,0.91551 -1.41345,0.22486 -2.66626,0.3373 -3.75844,0.3373 -3.50146,0 -6.21588,-1.07614 -8.14326,-3.2284 -1.92743,-2.15226 -2.89112,-5.66977 -2.89111,-10.55252"/>
		<path d="m 429.08742,166.8407 8.19146,-1.01189 0,-65.24254 -7.70961,-1.734673 0,-4.1921 15.08192,-2.02377 1.9274,1.10826 0,72.084823 8.57694,1.01189 0,4.09573 -26.06811,0 0,-4.09573"/>
		<path d="M 489.0625 115.4375 C 485.1113 115.53392 481.52655 116.30364 478.25 117.78125 C 474.9734 119.22685 472.1575 121.2123 469.8125 123.75 C 467.49961 126.28779 465.66079 129.31197 464.34375 132.78125 C 463.0588 136.25061 462.43749 140.0445 462.4375 144.15625 C 462.43748 148.39656 462.97118 152.21907 464.03125 155.65625 C 465.12344 159.09346 466.6941 162.02739 468.75 164.46875 C 470.80589 166.87801 473.325 168.77582 476.3125 170.125 C 479.33207 171.44206 482.7693 172.09375 486.65625 172.09375 C 488.48725 172.09375 490.38507 171.97574 492.3125 171.71875 C 494.23986 171.49389 496.07693 171.13723 497.84375 170.6875 C 499.61049 170.20565 501.24104 169.64334 502.71875 168.96875 C 504.2285 168.29416 505.44337 167.5227 506.375 166.6875 L 504.59375 162.59375 C 503.91912 162.97924 503.03053 163.3654 501.90625 163.71875 C 500.81402 164.07211 499.59826 164.39839 498.28125 164.6875 C 496.99627 164.94449 495.66253 165.1519 494.28125 165.3125 C 492.89992 165.44104 491.59653 165.50001 490.34375 165.5 C 488.28782 165.50001 486.18349 165.20323 484.03125 164.625 C 481.87896 164.01467 479.89264 162.97768 478.09375 161.5 C 476.32694 159.99021 474.8448 157.944 473.65625 155.40625 C 472.46767 152.86851 471.81598 149.66819 471.6875 145.78125 C 471.6553 145.58853 471.62499 145.41064 471.625 145.25 L 471.625 144.6875 L 507.34375 144.6875 C 507.50431 143.53109 507.6527 142.19646 507.78125 140.71875 C 507.94181 139.24111 507.97045 137.49255 507.90625 135.46875 C 507.7777 132.28856 507.24403 129.44316 506.3125 126.9375 C 505.41301 124.43193 504.16863 122.32847 502.5625 120.59375 C 500.95629 118.85914 499.03071 117.55488 496.75 116.6875 C 494.4692 115.7881 491.88932 115.3733 489.0625 115.4375 z M 486.5625 120.59375 C 487.91165 120.5938 489.1274 120.7422 490.1875 121.03125 C 491.24754 121.28829 492.19602 121.67271 493.03125 122.21875 C 494.25191 122.98977 495.1995 123.99723 495.90625 125.25 C 496.64504 126.47073 497.2091 127.83399 497.5625 129.34375 C 497.91581 130.82147 498.0928 132.39212 498.125 134.0625 C 498.18918 135.70083 498.19005 137.36174 498.09375 139 L 471.71875 139 C 471.97573 135.69133 472.56928 132.87542 473.46875 130.5625 C 474.36819 128.21754 475.46417 126.29022 476.78125 124.8125 C 478.13041 123.33487 479.64207 122.26839 481.3125 121.59375 C 483.01501 120.91922 484.76357 120.5938 486.5625 120.59375 z "/>
		<path d="m 520.83175,156.96277 4.28846,0 1.87922,5.87857 c 0.80307,0.67459 1.59009,1.26888 2.36107,1.78284 0.80307,0.48186 1.60615,0.8834 2.40925,1.20463 0.83518,0.32124 1.71858,0.57823 2.65018,0.77097 0.93156,0.16061 1.95949,0.25698 3.08384,0.28911 1.79888,0.0642 3.45324,-0.0643 4.96306,-0.38548 1.50976,-0.35336 2.81077,-0.89946 3.90299,-1.6383 1.09215,-0.77096 1.94343,-1.73466 2.5538,-2.8911 0.61032,-1.15643 0.91548,-2.53773 0.91552,-4.14391 -4e-5,-1.44554 -0.40157,-2.68229 -1.20463,-3.71026 -0.77099,-1.02792 -1.79894,-1.94343 -3.08384,-2.74654 -1.28497,-0.83519 -2.74657,-1.59009 -4.38483,-2.2647 -1.63833,-0.70669 -3.30874,-1.47765 -5.01125,-2.31288 -1.8953,-0.89943 -3.75845,-1.87919 -5.58946,-2.93929 -1.79893,-1.09217 -3.4051,-2.29679 -4.81851,-3.61388 -1.38131,-1.34915 -2.48957,-2.85895 -3.32477,-4.52939 -0.83522,-1.67038 -1.23676,-3.58172 -1.20462,-5.73402 0.0321,-1.67037 0.32122,-3.18017 0.86733,-4.52939 0.57821,-1.34914 1.3331,-2.55376 2.26469,-3.61389 0.96369,-1.06002 2.07194,-1.97553 3.32477,-2.74654 1.25279,-0.80303 2.58592,-1.46156 3.99936,-1.97559 1.4134,-0.54605 2.85896,-0.94758 4.33665,-1.20462 1.50978,-0.28906 2.98745,-0.44968 4.43303,-0.48185 1.60613,-0.0321 3.14805,0.0482 4.62576,0.24092 1.50977,0.16068 2.90713,0.4016 4.1921,0.72278 1.31702,0.32128 2.48952,0.6907 3.51751,1.10825 1.06003,0.41766 1.95948,0.83526 2.69836,1.25281 l 0,10.3116 -4.09572,0 -2.07197,-5.39672 c -0.44975,-0.4818 -0.94767,-0.91547 -1.49373,-1.30099 -0.51401,-0.41757 -1.10829,-0.77091 -1.78285,-1.06008 -0.6425,-0.32118 -1.38134,-0.57816 -2.21651,-0.77096 -0.83524,-0.19269 -1.78287,-0.28906 -2.84291,-0.28911 -1.54196,5e-5 -2.97144,0.16067 -4.28848,0.48185 -1.28495,0.28917 -2.40927,0.75495 -3.37295,1.39736 -0.96372,0.64252 -1.73468,1.47773 -2.31288,2.50563 -0.54611,1.028 -0.83522,2.26474 -0.86733,3.71025 -0.0643,1.44559 0.2891,2.71446 1.06007,3.80661 0.77094,1.06012 1.78283,2.02382 3.03566,2.89111 1.25279,0.86737 2.68227,1.68651 4.28846,2.45744 1.63827,0.73887 3.30868,1.52588 5.01125,2.36106 1.76675,0.83524 3.54959,1.70257 5.34854,2.60199 1.83099,0.86736 3.46929,1.91137 4.91488,3.13204 1.44551,1.18858 2.61801,2.60201 3.5175,4.24028 0.93154,1.60619 1.39732,3.53358 1.39737,5.78221 -5e-5,2.73049 -0.54615,5.12368 -1.63829,7.17956 -1.09223,2.05591 -2.60203,3.7745 -4.52939,5.15581 -1.89532,1.3813 -4.12789,2.40925 -6.69773,3.08384 -2.53778,0.70671 -5.26825,1.06007 -8.19146,1.06007 -2.92324,0 -5.84647,-0.35336 -8.76968,-1.06007 -2.92323,-0.67459 -5.60553,-1.68648 -8.04689,-3.03566 l 0,-11.03437"/>
		<path d="m 205.36426,216.47129 23.61067,-2.89111 0,-127.883103 -34.98234,1.9274 -6.74591,16.479293 -8.76968,0.19274 2.40926,-29.296513 114.77677,0 -0.19274,29.585623 -7.90235,0.86733 -5.01124,-17.924843 -34.7896,-1.83103 0,127.883103 25.15259,2.89111 0,8.19145 -67.55543,0 0,-8.19145"/>
	</g>
	<g fill="#93a1a1">
		<path d="m 284.53228,189.53585 -3.13203,-0.38548 0,-2.38516 12.8895,0 0,2.38516 -4.55349,0.40957 7.54096,24.79121 c 0.24091,0.78702 0.48184,1.56602 0.72278,2.33697 0.24091,0.77096 0.48986,1.54996 0.74687,2.33698 l 1.49373,-4.38484 5.10761,-20.76775 -1.34918,-4.33666 -3.90298,-0.38548 0,-2.38516 13.13043,0 0,2.38516 -4.19211,0.38548 6.55317,25.29715 1.18054,4.60167 1.22871,-5.51718 6.28815,-24.38164 -4.16801,-0.38548 0,-2.38516 11.66078,0 0,2.38516 -3.56569,0.38548 -10.2875,35.1269 -3.8789,0 -6.91455,-24.45391 -6.84228,24.45391 -3.95117,0 -11.80534,-35.1269"/>
		<path d="m 339.8969,191.05368 c -0.38549,3e-5 -0.76294,-0.0643 -1.13235,-0.19274 -0.36942,-0.14452 -0.6987,-0.33726 -0.9878,-0.57822 -0.27305,-0.25696 -0.49791,-0.57016 -0.67459,-0.93961 -0.16062,-0.36939 -0.24093,-0.78699 -0.24093,-1.25281 0,-0.49787 0.1044,-0.96367 0.31321,-1.39737 0.22486,-0.43363 0.50593,-0.80304 0.84323,-1.10825 0.33729,-0.3212 0.71475,-0.57015 1.13236,-0.74688 0.43365,-0.17663 0.86732,-0.26497 1.30099,-0.26501 1.06006,4e-5 1.83102,0.29718 2.31288,0.89143 0.49791,0.57825 0.74686,1.27693 0.74687,2.09604 -10e-6,0.53007 -0.10441,1.01192 -0.3132,1.44555 -0.20881,0.43371 -0.48186,0.80312 -0.81915,1.10826 -0.3373,0.28915 -0.72278,0.52204 -1.15644,0.69868 -0.43367,0.16065 -0.87537,0.24096 -1.32508,0.24093"/>
		<path d="m 334.57245,222.13303 4.09573,-0.50594 0,-19.73178 -3.32477,-1.75875 0,-1.49374 6.67363,-1.9033 1.08416,0.48185 0,24.40572 3.90299,0.50594 0,2.04787 -12.43174,0 0,-2.04787"/>
		<path d="m 350.95536,222.13303 4.09574,-0.50594 0,-32.62128 -3.85481,-0.86733 0,-2.09604 7.54095,-1.01189 0.9637,0.55413 0,36.04241 4.28848,0.50594 0,2.04787 -13.03406,0 0,-2.04787"/>
		<path d="m 367.82013,222.13303 4.09573,-0.50594 0,-32.62128 -3.8548,-0.86733 0,-2.09604 7.54095,-1.01189 0.9637,0.55413 0,36.04241 4.28847,0.50594 0,2.04787 -13.03405,0 0,-2.04787"/>
		<path d="m 390.10571,191.05368 c -0.38549,3e-5 -0.76293,-0.0643 -1.13234,-0.19274 -0.36943,-0.14452 -0.6987,-0.33726 -0.9878,-0.57822 -0.27305,-0.25696 -0.49792,-0.57016 -0.67459,-0.93961 -0.16063,-0.36939 -0.24093,-0.78699 -0.24093,-1.25281 0,-0.49787 0.1044,-0.96367 0.3132,-1.39737 0.22487,-0.43363 0.50594,-0.80304 0.84324,-1.10825 0.33729,-0.3212 0.71474,-0.57015 1.13236,-0.74688 0.43365,-0.17663 0.86732,-0.26497 1.30099,-0.26501 1.06006,4e-5 1.83102,0.29718 2.31288,0.89143 0.49791,0.57825 0.74685,1.27693 0.74687,2.09604 -2e-5,0.53007 -0.10441,1.01192 -0.3132,1.44555 -0.20882,0.43371 -0.48186,0.80312 -0.81915,1.10826 -0.3373,0.28915 -0.72278,0.52204 -1.15644,0.69868 -0.43367,0.16065 -0.87537,0.24096 -1.32509,0.24093"/>
		<path d="m 384.78126,222.13303 4.09574,-0.50594 0,-19.73178 -3.32478,-1.75875 0,-1.49374 6.67363,-1.9033 1.08417,0.48185 0,24.40572 3.90298,0.50594 0,2.04787 -12.43174,0 0,-2.04787"/>
		<path d="M 412.125 196.75 C 411.51465 196.75002 410.77357 196.79384 409.90625 196.90625 C 409.05498 197.01871 408.16551 197.1966 407.25 197.4375 C 406.35053 197.67845 405.49234 197.97436 404.625 198.34375 C 403.77373 198.69713 403.03178 199.11192 402.4375 199.59375 L 403.34375 201.78125 C 403.9059 201.50821 404.49859 201.25613 405.125 201.03125 C 405.7514 200.80642 406.35839 200.59815 406.96875 200.4375 C 407.59515 200.27691 408.20302 200.17405 408.78125 200.09375 C 409.35946 199.9974 409.87795 199.93752 410.34375 199.9375 C 411.27532 199.93752 412.13441 200.02691 412.9375 200.1875 C 413.74058 200.34814 414.43695 200.64405 415.03125 201.09375 C 415.62552 201.5435 416.10019 202.16568 416.4375 202.96875 C 416.77477 203.75578 416.93749 204.79364 416.9375 206.0625 L 416.9375 208.15625 C 416.18258 208.15627 415.30919 208.2162 414.28125 208.3125 C 413.25329 208.40888 412.17075 208.57159 411.0625 208.8125 C 409.95424 209.05343 408.85824 209.37972 407.75 209.78125 C 406.65779 210.1828 405.64944 210.67092 404.75 211.28125 C 403.85053 211.8916 403.11035 212.61749 402.5 213.46875 C 401.88966 214.30396 401.51867 215.31318 401.40625 216.4375 C 401.27774 217.56182 401.36625 218.61312 401.6875 219.625 C 402.02479 220.62083 402.54416 221.51029 403.21875 222.28125 C 403.9094 223.03614 404.76935 223.64402 405.78125 224.09375 C 406.80919 224.54347 407.93468 224.75 409.1875 224.75 C 410.19937 224.75 411.11835 224.69185 411.9375 224.53125 C 412.7727 224.37062 413.51378 224.13286 414.15625 223.84375 C 414.81477 223.55464 415.37708 223.22924 415.875 222.84375 C 416.38897 222.45827 416.84931 222.04348 417.21875 221.59375 L 417.21875 222.25 C 417.21873 222.84429 417.29205 223.31895 417.46875 223.65625 C 417.66147 223.99354 417.91443 224.24563 418.1875 224.40625 C 418.47659 224.56687 418.78769 224.6554 419.125 224.6875 C 419.46227 224.7357 419.77337 224.75 420.0625 224.75 C 420.89769 224.75 421.71209 224.66149 422.53125 224.46875 C 423.36644 224.27601 424.06281 224.02392 424.625 223.71875 L 424.625 222.125 L 421.53125 222.125 L 421.59375 205.5625 C 421.59372 203.81181 421.32646 202.37434 420.8125 201.25 C 420.31458 200.10965 419.64856 199.18981 418.78125 198.53125 C 417.91391 197.85669 416.90642 197.41326 415.75 197.15625 C 414.6096 196.88323 413.39387 196.75002 412.125 196.75 z M 415.875 210.65625 C 416.24442 210.63617 416.6002 210.65625 416.9375 210.65625 C 416.9214 212.16606 416.92225 213.66252 416.90625 215.15625 C 416.90622 216.63393 416.90622 218.11521 416.90625 219.625 C 416.6653 219.86593 416.33903 220.11801 415.9375 220.375 C 415.552 220.61592 415.12202 220.83851 414.65625 221.03125 C 414.20651 221.22399 413.7479 221.3715 413.25 221.5 C 412.75207 221.62844 412.23184 221.6875 411.75 221.6875 C 410.8666 221.6875 410.0817 221.61418 409.375 221.4375 C 408.66827 221.24476 408.0604 220.93279 407.5625 220.53125 C 407.08064 220.11364 406.72573 219.59602 406.46875 218.9375 C 406.21175 218.27898 406.09375 217.47889 406.09375 216.53125 C 406.09375 215.76029 406.25645 215.06304 406.59375 214.46875 C 406.94709 213.87447 407.39053 213.37117 407.96875 212.9375 C 408.54697 212.48778 409.21383 212.10162 409.96875 211.8125 C 410.72363 211.5234 411.50941 211.30169 412.3125 211.125 C 413.11558 210.94833 413.91566 210.8142 414.71875 210.75 C 415.12029 210.70987 415.50558 210.67633 415.875 210.65625 z "/>
		<path d="m 429.4488,222.13303 3.27659,-0.53003 0,-19.58722 -3.42115,-1.87922 0,-1.49374 6.40862,-1.9033 1.08415,0.48185 0,3.44522 c 0.53003,-0.46576 1.1725,-0.92351 1.92741,-1.37327 0.75489,-0.46577 1.55797,-0.88337 2.40925,-1.25281 0.86732,-0.3694 1.75071,-0.66653 2.65018,-0.89142 0.89943,-0.2409 1.75874,-0.37743 2.5779,-0.40957 1.73464,-0.0643 3.132,0.16867 4.1921,0.69868 1.07611,0.514 1.91132,1.42148 2.50562,2.72245 0.57819,-0.43364 1.26081,-0.85124 2.04786,-1.25281 0.787,-0.40152 1.61418,-0.75488 2.48154,-1.06007 0.8673,-0.32121 1.74266,-0.57819 2.62608,-0.77096 0.88336,-0.19271 1.71053,-0.30515 2.48153,-0.33729 1.4937,-0.0481 2.75454,0.13655 3.78252,0.55412 1.02791,0.41764 1.85509,1.09223 2.48154,2.02377 0.62636,0.9316 1.07608,2.13623 1.34918,3.61389 0.273,1.47768 0.40952,3.2525 0.40956,5.32444 l 0,13.37135 4.07164,0.50594 0,2.04787 -11.97398,0 0,-2.04787 3.27658,-0.50594 0,-12.52811 c -3e-5,-1.54191 -0.0723,-2.87502 -0.21682,-3.99936 -0.14461,-1.14037 -0.43372,-2.07193 -0.86734,-2.79473 -0.41764,-0.73882 -1.00389,-1.27688 -1.75875,-1.6142 -0.75494,-0.33727 -1.74273,-0.48183 -2.96338,-0.43367 -1.09222,0.0482 -2.17639,0.25702 -3.2525,0.62641 -1.07616,0.35338 -2.13623,0.8272 -3.18021,1.42146 0.17665,0.77098 0.31318,1.65436 0.40958,2.65018 0.0963,0.97978 0.14452,1.99969 0.14456,3.05975 l 0,13.63636 3.68614,0.48185 0,2.04787 -11.92579,0 0,-2.04787 3.61388,-0.53003 0,-12.8895 c -3e-5,-1.52584 -0.0803,-2.83487 -0.24093,-3.92709 -0.14458,-1.09217 -0.43369,-1.98359 -0.86733,-2.67426 -0.43368,-0.69063 -1.036,-1.18051 -1.80694,-1.46965 -0.75491,-0.30515 -1.74271,-0.43364 -2.96337,-0.38548 -0.86736,0.0482 -1.86318,0.27307 -2.98748,0.67459 -1.10827,0.3855 -2.27274,0.99584 -3.49342,1.83103 l 0,4.40894 c -1e-5,2.42532 -0.008,4.83457 -0.024,7.22776 -0.016,2.39319 -0.016,4.80243 0,7.22775 l 3.58979,0.50594 0,2.04787 -11.54032,0 0,-2.04787"/>
		<path d="m 490.74018,206.73791 c 0,-2.07194 0.23289,-4.00737 0.69867,-5.8063 0.4658,-1.81494 1.12432,-3.47732 1.9756,-4.98715 0.85126,-1.50977 1.86314,-2.85092 3.03565,-4.02345 1.18856,-1.17247 2.49758,-2.16829 3.92709,-2.98747 1.42947,-0.81911 2.96336,-1.43748 4.60167,-1.85513 1.63827,-0.43363 3.33278,-0.65046 5.08352,-0.65049 1.50977,3e-5 2.85093,0.0642 4.02344,0.19274 1.18855,0.11246 2.23255,0.25701 3.13204,0.43366 0.89942,0.16065 1.67038,0.3293 2.31288,0.50594 0.64244,0.17672 1.17247,0.31324 1.5901,0.40958 l -0.38548,6.98682 -2.5538,0 -1.25281,-4.02344 c -0.12853,-0.16059 -0.40157,-0.33726 -0.81915,-0.53003 -0.40157,-0.20878 -0.94767,-0.40152 -1.6383,-0.57823 -0.69066,-0.1927 -1.53391,-0.34529 -2.5297,-0.45776 -0.97979,-0.1124 -2.11214,-0.16058 -3.39705,-0.14455 -1.71862,0.0322 -3.35691,0.41763 -4.91488,1.15644 -1.55799,0.7228 -2.93126,1.76682 -4.11981,3.13202 -1.17252,1.36528 -2.11213,3.03569 -2.81883,5.01125 -0.69066,1.97561 -1.03599,4.21622 -1.03598,6.72182 -1e-5,1.46163 0.11243,2.89914 0.33729,4.31256 0.24092,1.39738 0.59428,2.73049 1.06007,3.99935 0.46579,1.25282 1.05204,2.41729 1.75876,3.49342 0.72276,1.07614 1.55797,2.00771 2.50562,2.79473 0.96369,0.77096 2.04785,1.38131 3.25249,1.83103 1.22068,0.43367 2.56182,0.6505 4.02345,0.6505 0.69064,0 1.40538,-0.0321 2.14424,-0.0963 0.73881,-0.0803 1.46158,-0.2088 2.16833,-0.38548 0.70668,-0.19273 1.37324,-0.44972 1.99968,-0.77096 0.62638,-0.33729 1.1805,-0.77095 1.66238,-1.30099 l 0,-9.87794 -5.85449,-0.40957 0,-2.36107 13.51591,0 0,2.36107 -2.96338,0.43366 0,12.31128 c -0.53007,0.0321 -1.27694,0.18471 -2.24061,0.45777 -0.94766,0.27304 -2.03986,0.57018 -3.27658,0.89141 -1.22071,0.32124 -2.53777,0.61035 -3.95117,0.86733 -1.41345,0.27306 -2.85096,0.40958 -4.31256,0.40958 -2.48958,0 -4.76231,-0.44973 -6.81818,-1.34918 -2.05591,-0.91551 -3.82269,-2.17635 -5.30036,-3.78253 -1.46162,-1.62223 -2.602,-3.53356 -3.42114,-5.73402 -0.80308,-2.2165 -1.20462,-4.63378 -1.20462,-7.25185"/>
		<path d="M 539.25 196.75 C 538.63964 196.75002 537.89857 196.79384 537.03125 196.90625 C 536.17997 197.01871 535.29051 197.1966 534.375 197.4375 C 533.47554 197.67845 532.58608 197.97436 531.71875 198.34375 C 530.86748 198.69713 530.15678 199.11192 529.5625 199.59375 L 530.4375 201.78125 C 530.99966 201.50821 531.59234 201.25613 532.21875 201.03125 C 532.84515 200.80642 533.4834 200.59815 534.09375 200.4375 C 534.72015 200.27691 535.29677 200.17405 535.875 200.09375 C 536.45321 199.9974 537.00294 199.93752 537.46875 199.9375 C 538.40031 199.93752 539.2594 200.02691 540.0625 200.1875 C 540.86557 200.34814 541.56196 200.64405 542.15625 201.09375 C 542.75052 201.5435 543.22519 202.16568 543.5625 202.96875 C 543.89977 203.75578 544.06249 204.79364 544.0625 206.0625 L 544.0625 208.15625 C 543.30759 208.15627 542.40294 208.2162 541.375 208.3125 C 540.34705 208.40888 539.29575 208.57159 538.1875 208.8125 C 537.07924 209.05343 535.95199 209.37972 534.84375 209.78125 C 533.75155 210.1828 532.77444 210.67092 531.875 211.28125 C 530.97554 211.8916 530.20409 212.61749 529.59375 213.46875 C 528.9834 214.30396 528.64368 215.31318 528.53125 216.4375 C 528.40275 217.56182 528.49126 218.61312 528.8125 219.625 C 529.14979 220.62083 529.63791 221.51029 530.3125 222.28125 C 531.00315 223.03614 531.86311 223.64402 532.875 224.09375 C 533.90295 224.54347 535.05968 224.75 536.3125 224.75 C 537.32437 224.75 538.2121 224.69185 539.03125 224.53125 C 539.86644 224.37062 540.60752 224.13286 541.25 223.84375 C 541.90851 223.55464 542.50207 223.22924 543 222.84375 C 543.51396 222.45827 543.94305 222.04348 544.3125 221.59375 L 544.3125 222.25 C 544.31248 222.84429 544.41706 223.31895 544.59375 223.65625 C 544.78647 223.99354 545.00817 224.24563 545.28125 224.40625 C 545.57034 224.56687 545.88144 224.6554 546.21875 224.6875 C 546.55602 224.7357 546.86712 224.75 547.15625 224.75 C 547.99144 224.75 548.83708 224.66149 549.65625 224.46875 C 550.49143 224.27601 551.18782 224.02392 551.75 223.71875 L 551.75 222.125 L 548.65625 222.125 L 548.71875 205.5625 C 548.71873 203.81181 548.45145 202.37434 547.9375 201.25 C 547.43957 200.10965 546.74231 199.18981 545.875 198.53125 C 545.00766 197.85669 544.00017 197.41326 542.84375 197.15625 C 541.70336 196.88323 540.51886 196.75002 539.25 196.75 z M 543 210.65625 C 543.36942 210.63617 543.7252 210.65625 544.0625 210.65625 C 544.0464 212.16606 544.016 213.66252 544 215.15625 C 543.99998 216.63393 543.99998 218.11521 544 219.625 C 543.75906 219.86593 543.43278 220.11801 543.03125 220.375 C 542.64575 220.61592 542.24703 220.83851 541.78125 221.03125 C 541.33152 221.22399 540.84164 221.3715 540.34375 221.5 C 539.84582 221.62844 539.35684 221.6875 538.875 221.6875 C 537.9916 221.6875 537.20671 221.61418 536.5 221.4375 C 535.79328 221.24476 535.18539 220.93279 534.6875 220.53125 C 534.20564 220.11364 533.81947 219.59602 533.5625 218.9375 C 533.3055 218.27898 533.1875 217.47889 533.1875 216.53125 C 533.1875 215.76029 533.3502 215.06304 533.6875 214.46875 C 534.04085 213.87447 534.51553 213.37117 535.09375 212.9375 C 535.67197 212.48778 536.33884 212.10162 537.09375 211.8125 C 537.84863 211.5234 538.6344 211.30169 539.4375 211.125 C 540.24057 210.94833 541.04066 210.8142 541.84375 210.75 C 542.24529 210.70987 542.63058 210.67633 543 210.65625 z "/>
		<path d="m 558.39198,200.6425 -2.48154,-0.72277 0,-1.85513 6.19178,-1.32508 0.84324,0.43366 0,16.59975 c 0,1.33312 0.0723,2.48153 0.21683,3.44522 0.14455,0.94765 0.40957,1.73468 0.79506,2.36108 0.38547,0.61034 0.9155,1.0681 1.5901,1.37327 0.67458,0.28911 1.54191,0.43366 2.60199,0.43366 0.72276,0 1.42948,-0.0963 2.12015,-0.28911 0.7067,-0.20879 1.35719,-0.44972 1.95149,-0.72277 0.61033,-0.28911 1.14037,-0.58625 1.59011,-0.89142 0.44971,-0.32124 0.77897,-0.59428 0.98779,-0.81915 l 0,-17.80438 -3.01156,-0.77096 0,-1.97558 6.89046,-1.37327 0.67459,0.40957 0,24.98394 2.8911,0 0,1.83103 c -0.24095,0.12849 -0.53809,0.24896 -0.89142,0.3614 -0.35338,0.12848 -0.73886,0.24092 -1.15645,0.33729 -0.40156,0.0963 -0.81917,0.17667 -1.25281,0.24093 -0.41762,0.0642 -0.81916,0.0963 -1.20462,0.0963 -0.77098,-2e-5 -1.38132,-0.16866 -1.83103,-0.50595 -0.43369,-0.32123 -0.65052,-0.84324 -0.65049,-1.56602 l 0,-1.97558 c -1.3974,1.22069 -2.86703,2.15227 -4.40894,2.79473 -1.52588,0.6264 -3.01961,0.93961 -4.48121,0.93961 -1.89529,0 -3.37296,-0.28911 -4.43302,-0.86733 -1.06008,-0.59429 -1.85513,-1.4054 -2.38516,-2.43335 -0.51398,-1.044 -0.83522,-2.27272 -0.9637,-3.68616 -0.11244,-1.41341 -0.17668,-2.95534 -0.19274,-4.62576 l 0,-12.43174"/>
		<path d="m 586.96571,222.13303 4.09573,-0.50594 0,-32.62128 -3.8548,-0.86733 0,-2.09604 7.54095,-1.01189 0.9637,0.55413 0,36.04241 4.28847,0.50594 0,2.04787 -13.03405,0 0,-2.04787"/>
	</g>
</svg>
