<svg xmlns="http://www.w3.org/2000/svg" viewBox="0 0 421.52277 150">
	<g transform="translate(-570.24889,-699.17347)" fill="#fdf6e3">
		<path d="m678.13521 748.03311-4.96306-1.44555 0-3.71025 12.38356-2.65018 1.68647 0.86733 0 33.1995c-0.00002 2.66625 0.14454 4.96308 0.43367 6.89046 0.28909 1.89529 0.81912 3.46933 1.5901 4.72213 0.77094 1.2207 1.83102 2.13621 3.18022 2.74655 1.34916 0.57822 3.08382 0.86733 5.20398 0.86733 1.44552 0 2.85895-0.19274 4.24029-0.57822 1.41339-0.4176 2.71438-0.89945 3.90299-1.44555 1.22065-0.57821 2.28072-1.1725 3.18021-1.78285 0.89942-0.64246 1.55794-1.18855 1.97558-1.63829l0-35.60874-6.02312-1.54192 0-3.95118 13.78092-2.74655 1.34918 0.81915 0 49.96789 5.78221 0 0 3.66206c-0.48191 0.25699-1.07619 0.49792-1.78285 0.72278-0.70677 0.25699-1.47773 0.48185-2.31289 0.67459-0.80313 0.19274-1.63834 0.35336-2.50562 0.48185-0.83526 0.12849-1.63834 0.19274-2.40925 0.19274-1.54196 0-2.76265-0.3373-3.66206-1.01189-0.86738-0.64247-1.30105-1.68647-1.30099-3.13202l0-3.95118c-2.79478 2.44138-5.73406 4.30453-8.81787 5.58947-3.05175 1.25281-6.03923 1.87921-8.96242 1.87921-3.79058 0-6.74593-0.57822-8.86605-1.73466-2.12015-1.18857-3.71026-2.81079-4.77031-4.86669-1.02796-2.08801-1.67043-4.54545-1.9274-7.37231-0.22488-2.82684-0.35337-5.91068-0.38549-9.25153l0-24.86348M734.8972 791.01417l7.80597-1.01189 0-39.22262-6.84227-3.75843 0-2.98748 12.72085-3.80662 2.26469 0.9637 0 7.4205c0.61032-0.89941 1.52584-1.84705 2.74655-2.84292 1.25278-0.99577 2.65015-1.89522 4.1921-2.69836 1.54189-0.83515 3.14806-1.50974 4.8185-2.02377 1.67039-0.54605 3.24443-0.81909 4.72214-0.81915 1.06003 0.00006 2.00767 0.0322 2.84292 0.0963 0.86729 0.0322 1.47763 0.11249 1.83103 0.24093l0 9.87793c-0.51402-0.19269-1.04406-0.38543-1.59011-0.57822-0.54614-0.22482-1.15648-0.4015-1.83103-0.53003-0.6425-0.16058-1.38134-0.28907-2.21652-0.38548-0.83523-0.0963-1.79893-0.14451-2.8911-0.14456-2.60202 0.00005-4.78641 0.33734-6.55316 1.01189-1.76681 0.64251-3.38904 1.42952-4.86669 2.36106l0 37.6807 13.73273 1.15644 0 4.09574-30.8866 0 0-4.09574M786.7443 782.48542c-0.00001-5.91068-0.00001-11.77319 0-17.58755 0.0321-5.84641 0.0482-11.72498 0.0482-17.63572l-7.3723 0 0-3.61388c1.41342-0.3533 2.58591-0.62636 3.5175-0.81915 0.96369-0.22481 1.75072-0.46573 2.36107-0.72277 0.64246-0.28906 1.17249-0.64241 1.5901-1.06007 0.4176-0.41755 0.80308-1.0279 1.15645-1.83103 0.22485-0.54605 0.49789-1.34913 0.81915-2.40925 0.35333-1.06002 0.67457-2.13615 0.9637-3.22841 0.32121-1.12425 0.59426-2.16826 0.81914-3.13202 0.22485-0.99576 0.3694-1.70248 0.43367-2.12014l4.77031 0 0 12.8654 16.19018 0 0 6.07132-16.19018 0 0 24.28526c-0.00002 3.72633 0.0482 6.76198 0.14456 9.10698 0.0963 2.31289 0.33727 4.12785 0.72277 5.4449 0.38546 1.31707 0.94762 2.21652 1.68648 2.69836 0.73881 0.44974 1.76676 0.6746 3.08385 0.67459 0.80305 0.00001 1.68644-0.0803 2.65017-0.24092 0.99579-0.16061 1.94344-0.35335 2.84292-0.57822 0.93154-0.22486 1.78281-0.46578 2.5538-0.72278 0.77093-0.2891 1.34916-0.56215 1.73467-0.81914l1.49374 4.24029c-0.73888 0.80308-1.71864 1.50979-2.9393 2.12014-1.22071 0.61034-2.55383 1.12432-3.99935 1.54192-1.41346 0.4176-2.84295 0.72277-4.28847 0.91551-1.41345 0.22486-2.66626 0.3373-3.75844 0.3373-3.50146 0-6.21588-1.07614-8.14326-3.2284-1.92743-2.15226-2.89112-5.66977-2.89111-10.55252M820.85931 791.01417l8.19146-1.01189 0-65.24254-7.70961-1.73467 0-4.1921 15.08192-2.02377 1.9274 1.10826 0 72.08482 8.57694 1.01189 0 4.09573-26.06811 0 0-4.09573M854.20336 768.31901c-0.00001-4.11175 0.64246-7.90231 1.92741-11.37167 1.31704-3.46928 3.13201-6.47281 5.4449-9.0106 2.345-2.5377 5.15579-4.52935 8.43239-5.97495 3.27655-1.47761 6.89043-2.26464 10.84163-2.36106 2.82682-0.0642 5.38063 0.35341 7.66143 1.25281 2.28071 0.86738 4.22417 2.16837 5.83038 3.90298 1.60613 1.73472 2.85894 3.85486 3.75843 6.36043 0.93153 2.50566 1.46157 5.34857 1.59012 8.52876 0.0642 2.0238 0.016 3.77452-0.14456 5.25216-0.12855 1.47771-0.2731 2.79477-0.43366 3.95118l-35.70513 0c-0.00001 0.19277-0.00001 0.38551 0 0.57822-0.00001 0.16064 0.016 0.33732 0.0482 0.53004 0.12848 3.88694 0.78701 7.09927 1.97559 9.63701 1.18855 2.53775 2.66621 4.56152 4.43302 6.07131 1.79889 1.47768 3.77447 2.52169 5.92676 3.13202 2.15224 0.57823 4.25631 0.86734 6.31224 0.86733 1.25278 0.00001 2.56984-0.0642 3.95117-0.19274 1.38128-0.1606 2.71439-0.36941 3.99937-0.6264 1.31701-0.28911 2.52164-0.61034 3.61387-0.9637 1.12428-0.35335 2.02373-0.72277 2.69836-1.10826l1.78286 4.09574c-0.93163 0.8352-2.15232 1.5901-3.66207 2.26469-1.47771 0.67459-3.09995 1.25281-4.86669 1.73466-1.76682 0.44973-3.61392 0.78703-5.54128 1.01189-1.92743 0.25699-3.80665 0.38548-5.63765 0.38548-3.88695 0-7.34021-0.65853-10.35978-1.97559-2.9875-1.34918-5.50917-3.22839-7.56506-5.63765-2.0559-2.44136-3.62994-5.38065-4.72213-8.81786-1.06007-3.43718-1.59012-7.27592-1.5901-11.51623m35.65693-5.1558c0.0963-1.63826 0.11238-3.27654 0.0482-4.91487-0.0322-1.67038-0.22491-3.24442-0.57822-4.72214-0.3534-1.50976-0.8995-2.87499-1.63829-4.09572-0.70675-1.25277-1.67045-2.26465-2.89111-3.03567-0.83523-0.54604-1.78287-0.94758-2.84291-1.20462-1.0601-0.28905-2.26473-0.43362-3.61388-0.43367-1.79893 0.00005-3.54966 0.33736-5.25217 1.01189-1.67043 0.67464-3.18023 1.75077-4.52939 3.2284-1.31708 1.47772-2.42533 3.38906-3.32477 5.73402-0.89947 2.31292-1.47769 5.12371-1.73467 8.43238l26.35723 0M912.60364 781.13624l4.28846 0 1.87922 5.87857c0.80307 0.67459 1.59009 1.26888 2.36107 1.78284 0.80307 0.48186 1.60615 0.8834 2.40925 1.20463 0.83518 0.32124 1.71858 0.57823 2.65018 0.77097 0.93156 0.16061 1.95949 0.25698 3.08384 0.28911 1.79888 0.0642 3.45324-0.0643 4.96306-0.38548 1.50976-0.35336 2.81077-0.89946 3.90299-1.6383 1.09215-0.77096 1.94343-1.73466 2.5538-2.8911 0.61032-1.15643 0.91548-2.53773 0.91552-4.14391-0.00004-1.44554-0.40157-2.68229-1.20463-3.71026-0.77099-1.02792-1.79894-1.94343-3.08384-2.74654-1.28497-0.83519-2.74657-1.59009-4.38483-2.2647-1.63833-0.70669-3.30874-1.47765-5.01125-2.31288-1.8953-0.89943-3.75845-1.87919-5.58946-2.93929-1.79893-1.09217-3.4051-2.29679-4.81851-3.61388-1.38131-1.34915-2.48957-2.85895-3.32477-4.52939-0.83522-1.67038-1.23676-3.58172-1.20462-5.73402 0.0321-1.67037 0.32122-3.18017 0.86733-4.52939 0.57821-1.34914 1.3331-2.55376 2.26469-3.61389 0.96369-1.06002 2.07194-1.97553 3.32477-2.74654 1.25279-0.80303 2.58592-1.46156 3.99936-1.97559 1.4134-0.54605 2.85896-0.94758 4.33665-1.20462 1.50978-0.28906 2.98745-0.44968 4.43303-0.48185 1.60613-0.0321 3.14805 0.0482 4.62576 0.24092 1.50977 0.16068 2.90713 0.4016 4.1921 0.72278 1.31702 0.32128 2.48952 0.6907 3.51751 1.10825 1.06003 0.41766 1.95948 0.83526 2.69836 1.25281l0 10.3116-4.09572 0-2.07197-5.39672c-0.44975-0.4818-0.94767-0.91547-1.49373-1.30099-0.51401-0.41757-1.10829-0.77091-1.78285-1.06008-0.6425-0.32118-1.38134-0.57816-2.21651-0.77096-0.83524-0.19269-1.78287-0.28906-2.84291-0.28911-1.54196 0.00005-2.97144 0.16067-4.28848 0.48185-1.28495 0.28917-2.40927 0.75495-3.37295 1.39736-0.96372 0.64252-1.73468 1.47773-2.31288 2.50563-0.54611 1.028-0.83522 2.26474-0.86733 3.71025-0.0643 1.44559 0.2891 2.71446 1.06007 3.80661 0.77094 1.06012 1.78283 2.02382 3.03566 2.89111 1.25279 0.86737 2.68227 1.68651 4.28846 2.45744 1.63827 0.73887 3.30868 1.52588 5.01125 2.36106 1.76675 0.83524 3.54959 1.70257 5.34854 2.60199 1.83099 0.86736 3.46929 1.91137 4.91488 3.13204 1.44551 1.18858 2.61801 2.60201 3.5175 4.24028 0.93154 1.60619 1.39732 3.53358 1.39737 5.78221-0.00005 2.73049-0.54615 5.12368-1.63829 7.17956-1.09223 2.05591-2.60203 3.7745-4.52939 5.15581-1.89532 1.3813-4.12789 2.40925-6.69773 3.08384-2.53778 0.70671-5.26825 1.06007-8.19146 1.06007-2.92324 0-5.84647-0.35336-8.76968-1.06007-2.92323-0.67459-5.60553-1.68648-8.04689-3.03566l0-11.03437"/>
		<path d="m676.30417 813.70932-3.13203-0.38548 0-2.38516 12.8895 0 0 2.38516-4.55349 0.40957 7.54096 24.79121c0.24091 0.78702 0.48184 1.56602 0.72278 2.33697 0.24091 0.77096 0.48986 1.54996 0.74687 2.33698l1.49373-4.38484 5.10761-20.76775-1.34918-4.33666-3.90298-0.38548 0-2.38516 13.13043 0 0 2.38516-4.19211 0.38548 6.55317 25.29715 1.18054 4.60167 1.22871-5.51718 6.28815-24.38164-4.16801-0.38548 0-2.38516 11.66078 0 0 2.38516-3.56569 0.38548-10.2875 35.1269-3.8789 0-6.91455-24.45391-6.84228 24.45391-3.95117 0-11.80534-35.1269M731.66879 815.22715c-0.38549 0.00003-0.76294-0.0643-1.13235-0.19274-0.36942-0.14452-0.6987-0.33726-0.9878-0.57822-0.27305-0.25696-0.49791-0.57016-0.67459-0.93961-0.16062-0.36939-0.24093-0.78699-0.24093-1.25281 0-0.49787 0.1044-0.96367 0.31321-1.39737 0.22486-0.43363 0.50593-0.80304 0.84323-1.10825 0.33729-0.3212 0.71475-0.57015 1.13236-0.74688 0.43365-0.17663 0.86732-0.26497 1.30099-0.26501 1.06006 0.00004 1.83102 0.29718 2.31288 0.89143 0.49791 0.57825 0.74686 1.27693 0.74687 2.09604-0.00001 0.53007-0.10441 1.01192-0.3132 1.44555-0.20881 0.43371-0.48186 0.80312-0.81915 1.10826-0.3373 0.28915-0.72278 0.52204-1.15644 0.69868-0.43367 0.16065-0.87537 0.24096-1.32508 0.24093m-5.32445 31.07935 4.09573-0.50594 0-19.73178-3.32477-1.75875 0-1.49374 6.67363-1.9033 1.08416 0.48185 0 24.40572 3.90299 0.50594 0 2.04787-12.43174 0 0-2.04787M742.72725 846.3065l4.09574-0.50594 0-32.62128-3.85481-0.86733 0-2.09604 7.54095-1.01189 0.9637 0.55413 0 36.04241 4.28848 0.50594 0 2.04787-13.03406 0 0-2.04787M759.59202 846.3065l4.09573-0.50594 0-32.62128-3.8548-0.86733 0-2.09604 7.54095-1.01189 0.9637 0.55413 0 36.04241 4.28847 0.50594 0 2.04787-13.03405 0 0-2.04787M781.8776 815.22715c-0.38549 0.00003-0.76293-0.0643-1.13234-0.19274-0.36943-0.14452-0.6987-0.33726-0.9878-0.57822-0.27305-0.25696-0.49792-0.57016-0.67459-0.93961-0.16063-0.36939-0.24093-0.78699-0.24093-1.25281 0-0.49787 0.1044-0.96367 0.3132-1.39737 0.22487-0.43363 0.50594-0.80304 0.84324-1.10825 0.33729-0.3212 0.71474-0.57015 1.13236-0.74688 0.43365-0.17663 0.86732-0.26497 1.30099-0.26501 1.06006 0.00004 1.83102 0.29718 2.31288 0.89143 0.49791 0.57825 0.74685 1.27693 0.74687 2.09604-0.00002 0.53007-0.10441 1.01192-0.3132 1.44555-0.20882 0.43371-0.48186 0.80312-0.81915 1.10826-0.3373 0.28915-0.72278 0.52204-1.15644 0.69868-0.43367 0.16065-0.87537 0.24096-1.32509 0.24093m-5.32445 31.07935 4.09574-0.50594 0-19.73178-3.32478-1.75875 0-1.49374 6.67363-1.9033 1.08417 0.48185 0 24.40572 3.90298 0.50594 0 2.04787-12.43174 0 0-2.04787M793.177 840.59658c0.11242-1.12432 0.47381-2.10408 1.08415-2.93929 0.61035-0.85126 1.36524-1.58207 2.26471-2.19242 0.89944-0.61033 1.89526-1.11628 2.98747-1.51783 1.10824-0.40153 2.2165-0.72277 3.32476-0.9637 1.10825-0.24091 2.17635-0.40956 3.20431-0.50594 1.02794-0.0963 1.91935-0.14454 2.67427-0.14456l0-2.09605c-0.00001-1.26886-0.16867-2.29681-0.50594-3.08384-0.33731-0.80307-0.8031-1.42947-1.39737-1.87922-0.5943-0.4497-1.29297-0.75488-2.09605-0.91552-0.80309-0.16059-1.67042-0.2409-2.60199-0.24092-0.4658 0.00002-0.98781 0.0482-1.56602 0.14455-0.57823 0.0803-1.18053 0.2008-1.80693 0.36139-0.61036 0.16065-1.22873 0.35339-1.85513 0.57822-0.62641 0.22488-1.22069 0.47384-1.78284 0.74688l-0.89143-2.16834c0.59428-0.48183 1.31705-0.89943 2.16832-1.25281 0.86734-0.36939 1.75072-0.67456 2.65019-0.91551 0.91551-0.2409 1.7989-0.41758 2.65017-0.53004 0.86732-0.11241 1.60616-0.16862 2.21651-0.16864 1.26887 0.00002 2.47349 0.13655 3.61389 0.40957 1.15642 0.25701 2.16831 0.7228 3.03565 1.39736 0.86731 0.65856 1.54994 1.55801 2.04786 2.69836 0.51396 1.12434 0.77094 2.56187 0.77097 4.31256l-0.0482 16.57566 3.08385 0 0 1.59011c-0.56219 0.30517-1.26087 0.55413-2.09606 0.74687-0.81916 0.19274-1.64634 0.28911-2.48153 0.28911-0.28913 0-0.60233-0.0241-0.9396-0.0723-0.33731-0.0321-0.65052-0.12849-0.93961-0.28911-0.27307-0.16062-0.50596-0.40957-0.69868-0.74686-0.1767-0.3373-0.26504-0.80309-0.26502-1.39738l0-0.67459c-0.36944 0.44973-0.81113 0.86733-1.3251 1.25281-0.49792 0.38549-1.07614 0.72279-1.73466 1.0119-0.64247 0.28911-1.38131 0.51396-2.21651 0.67459-0.81915 0.1606-1.73467 0.24092-2.74654 0.24092-1.25282 0-2.3932-0.22487-3.42114-0.67459-1.0119-0.44973-1.86316-1.05205-2.55381-1.80694-0.67459-0.77096-1.18053-1.65435-1.51782-2.65018-0.32125-1.01188-0.41762-2.07998-0.28911-3.2043m4.67394 0.0963c0 0.94764 0.12848 1.75073 0.38548 2.40925 0.25698 0.65852 0.6264 1.19659 1.10826 1.6142 0.4979 0.40154 1.10021 0.69868 1.80694 0.89142 0.7067 0.17668 1.50176 0.26502 2.38516 0.26502 0.48184 0 0.97171-0.0643 1.46964-0.19274 0.4979-0.1285 0.97172-0.28911 1.42146-0.48185 0.46577-0.19274 0.8914-0.40958 1.2769-0.6505 0.40153-0.25699 0.72276-0.50594 0.96371-0.74687-0.00003-1.50979-0.00003-3.00353 0-4.48121 0.016-1.49373 0.0321-2.99549 0.0482-4.5053-0.6746 0.00001-1.41344 0.0402-2.21652 0.12046-0.80309 0.0642-1.60617 0.18472-2.40925 0.36139-0.80309 0.17669-1.58208 0.40958-2.33696 0.69868-0.75492 0.28912-1.42147 0.65854-1.99969 1.10826-0.57822 0.43367-1.04402 0.94764-1.39736 1.54192-0.3373 0.59429-0.50595 1.27691-0.50595 2.04787M821.22069 846.3065l3.27659-0.53003 0-19.58722-3.42115-1.87922 0-1.49374 6.40862-1.9033 1.08415 0.48185 0 3.44522c0.53003-0.46576 1.1725-0.92351 1.92741-1.37327 0.75489-0.46577 1.55797-0.88337 2.40925-1.25281 0.86732-0.3694 1.75071-0.66653 2.65018-0.89142 0.89943-0.2409 1.75874-0.37743 2.5779-0.40957 1.73464-0.0643 3.132 0.16867 4.1921 0.69868 1.07611 0.514 1.91132 1.42148 2.50562 2.72245 0.57819-0.43364 1.26081-0.85124 2.04786-1.25281 0.787-0.40152 1.61418-0.75488 2.48154-1.06007 0.8673-0.32121 1.74266-0.57819 2.62608-0.77096 0.88336-0.19271 1.71053-0.30515 2.48153-0.33729 1.4937-0.0481 2.75454 0.13655 3.78252 0.55412 1.02791 0.41764 1.85509 1.09223 2.48154 2.02377 0.62636 0.9316 1.07608 2.13623 1.34918 3.61389 0.273 1.47768 0.40952 3.2525 0.40956 5.32444l0 13.37135 4.07164 0.50594 0 2.04787-11.97398 0 0-2.04787 3.27658-0.50594 0-12.52811c-0.00003-1.54191-0.0723-2.87502-0.21682-3.99936-0.14461-1.14037-0.43372-2.07193-0.86734-2.79473-0.41764-0.73882-1.00389-1.27688-1.75875-1.6142-0.75494-0.33727-1.74273-0.48183-2.96338-0.43367-1.09222 0.0482-2.17639 0.25702-3.2525 0.62641-1.07616 0.35338-2.13623 0.8272-3.18021 1.42146 0.17665 0.77098 0.31318 1.65436 0.40958 2.65018 0.0963 0.97978 0.14452 1.99969 0.14456 3.05975l0 13.63636 3.68614 0.48185 0 2.04787-11.92579 0 0-2.04787 3.61388-0.53003 0-12.8895c-0.00003-1.52584-0.0803-2.83487-0.24093-3.92709-0.14458-1.09217-0.43369-1.98359-0.86733-2.67426-0.43368-0.69063-1.036-1.18051-1.80694-1.46965-0.75491-0.30515-1.74271-0.43364-2.96337-0.38548-0.86736 0.0482-1.86318 0.27307-2.98748 0.67459-1.10827 0.3855-2.27274 0.99584-3.49342 1.83103l0 4.40894c-0.00001 2.42532-0.008 4.83457-0.024 7.22776-0.016 2.39319-0.016 4.80243 0 7.22775l3.58979 0.50594 0 2.04787-11.54032 0 0-2.04787M882.51207 830.91138c0-2.07194 0.23289-4.00737 0.69867-5.8063 0.4658-1.81494 1.12432-3.47732 1.9756-4.98715 0.85126-1.50977 1.86314-2.85092 3.03565-4.02345 1.18856-1.17247 2.49758-2.16829 3.92709-2.98747 1.42947-0.81911 2.96336-1.43748 4.60167-1.85513 1.63827-0.43363 3.33278-0.65046 5.08352-0.65049 1.50977 0.00003 2.85093 0.0642 4.02344 0.19274 1.18855 0.11246 2.23255 0.25701 3.13204 0.43366 0.89942 0.16065 1.67038 0.3293 2.31288 0.50594 0.64244 0.17672 1.17247 0.31324 1.5901 0.40958l-0.38548 6.98682-2.5538 0-1.25281-4.02344c-0.12853-0.16059-0.40157-0.33726-0.81915-0.53003-0.40157-0.20878-0.94767-0.40152-1.6383-0.57823-0.69066-0.1927-1.53391-0.34529-2.5297-0.45776-0.97979-0.1124-2.11214-0.16058-3.39705-0.14455-1.71862 0.0322-3.35691 0.41763-4.91488 1.15644-1.55799 0.7228-2.93126 1.76682-4.11981 3.13202-1.17252 1.36528-2.11213 3.03569-2.81883 5.01125-0.69066 1.97561-1.03599 4.21622-1.03598 6.72182-0.00001 1.46163 0.11243 2.89914 0.33729 4.31256 0.24092 1.39738 0.59428 2.73049 1.06007 3.99935 0.46579 1.25282 1.05204 2.41729 1.75876 3.49342 0.72276 1.07614 1.55797 2.00771 2.50562 2.79473 0.96369 0.77096 2.04785 1.38131 3.25249 1.83103 1.22068 0.43367 2.56182 0.6505 4.02345 0.6505 0.69064 0 1.40538-0.0321 2.14424-0.0963 0.73881-0.0803 1.46158-0.2088 2.16833-0.38548 0.70668-0.19273 1.37324-0.44972 1.99968-0.77096 0.62638-0.33729 1.1805-0.77095 1.66238-1.30099l0-9.87794-5.85449-0.40957 0-2.36107 13.51591 0 0 2.36107-2.96338 0.43366 0 12.31128c-0.53007 0.0321-1.27694 0.18471-2.24061 0.45777-0.94766 0.27304-2.03986 0.57018-3.27658 0.89141-1.22071 0.32124-2.53777 0.61035-3.95117 0.86733-1.41345 0.27306-2.85096 0.40958-4.31256 0.40958-2.48958 0-4.76231-0.44973-6.81818-1.34918-2.05591-0.91551-3.82269-2.17635-5.30036-3.78253-1.46162-1.62223-2.602-3.53356-3.42114-5.73402-0.80308-2.2165-1.20462-4.63378-1.20462-7.25185M920.28914 840.59658c0.11243-1.12432 0.47381-2.10408 1.08416-2.93929 0.61034-0.85126 1.36524-1.58207 2.2647-2.19242 0.89944-0.61033 1.89527-1.11628 2.98747-1.51783 1.10824-0.40153 2.21651-0.72277 3.32477-0.9637 1.10825-0.24091 2.17635-0.40956 3.2043-0.50594 1.02794-0.0963 1.91936-0.14454 2.67427-0.14456l0-2.09605c-0.00001-1.26886-0.16866-2.29681-0.50593-3.08384-0.33731-0.80307-0.80311-1.42947-1.39738-1.87922-0.59429-0.4497-1.29297-0.75488-2.09604-0.91552-0.8031-0.16059-1.67043-0.2409-2.60199-0.24092-0.46581 0.00002-0.98781 0.0482-1.56602 0.14455-0.57823 0.0803-1.18054 0.2008-1.80694 0.36139-0.61035 0.16065-1.22872 0.35339-1.85512 0.57822-0.62641 0.22488-1.22069 0.47384-1.78285 0.74688l-0.89142-2.16834c0.59428-0.48183 1.31705-0.89943 2.16832-1.25281 0.86733-0.36939 1.75072-0.67456 2.65018-0.91551 0.91551-0.2409 1.7989-0.41758 2.65018-0.53004 0.86732-0.11241 1.60615-0.16862 2.21651-0.16864 1.26886 0.00002 2.47349 0.13655 3.61388 0.40957 1.15642 0.25701 2.16831 0.7228 3.03565 1.39736 0.86731 0.65856 1.54994 1.55801 2.04787 2.69836 0.51395 1.12434 0.77094 2.56187 0.77096 4.31256l-0.0482 16.57566 3.08384 0 0 1.59011c-0.56218 0.30517-1.26087 0.55413-2.09605 0.74687-0.81917 0.19274-1.64634 0.28911-2.48153 0.28911-0.28913 0-0.60234-0.0241-0.93961-0.0723-0.33731-0.0321-0.65051-0.12849-0.9396-0.28911-0.27308-0.16062-0.50597-0.40957-0.69869-0.74686-0.17669-0.3373-0.26503-0.80309-0.26501-1.39738l0-0.67459c-0.36945 0.44973-0.81114 0.86733-1.3251 1.25281-0.49793 0.38549-1.07615 0.72279-1.73466 1.0119-0.64248 0.28911-1.38132 0.51396-2.21651 0.67459-0.81915 0.1606-1.73468 0.24092-2.74655 0.24092-1.25282 0-2.39319-0.22487-3.42114-0.67459-1.01189-0.44973-1.86315-1.05205-2.5538-1.80694-0.67459-0.77096-1.18054-1.65435-1.51783-2.65018-0.32124-1.01188-0.41761-2.07998-0.28911-3.2043m4.67395 0.0963c0 0.94764 0.12848 1.75073 0.38548 2.40925 0.25697 0.65852 0.6264 1.19659 1.10826 1.6142 0.49789 0.40154 1.10021 0.69868 1.80693 0.89142 0.70671 0.17668 1.50176 0.26502 2.38516 0.26502 0.48184 0 0.97172-0.0643 1.46965-0.19274 0.49789-0.1285 0.97172-0.28911 1.42145-0.48185 0.46578-0.19274 0.89141-0.40958 1.27691-0.6505 0.40153-0.25699 0.72276-0.50594 0.9637-0.74687-0.00002-1.50979-0.00002-3.00353 0-4.48121 0.016-1.49373 0.0321-2.99549 0.0482-4.5053-0.6746 0.00001-1.41344 0.0402-2.21651 0.12046-0.80309 0.0642-1.60618 0.18472-2.40925 0.36139-0.8031 0.17669-1.58209 0.40958-2.33697 0.69868-0.75491 0.28912-1.42147 0.65854-1.99969 1.10826-0.57822 0.43367-1.04401 0.94764-1.39736 1.54192-0.3373 0.59429-0.50594 1.27691-0.50594 2.04787M950.16387 824.81597l-2.48154-0.72277 0-1.85513 6.19178-1.32508 0.84324 0.43366 0 16.59975c0 1.33312 0.0723 2.48153 0.21683 3.44522 0.14455 0.94765 0.40957 1.73468 0.79506 2.36108 0.38547 0.61034 0.9155 1.0681 1.5901 1.37327 0.67458 0.28911 1.54191 0.43366 2.60199 0.43366 0.72276 0 1.42948-0.0963 2.12015-0.28911 0.7067-0.20879 1.35719-0.44972 1.95149-0.72277 0.61033-0.28911 1.14037-0.58625 1.59011-0.89142 0.44971-0.32124 0.77897-0.59428 0.98779-0.81915l0-17.80438-3.01156-0.77096 0-1.97558 6.89046-1.37327 0.67459 0.40957 0 24.98394 2.8911 0 0 1.83103c-0.24095 0.12849-0.53809 0.24896-0.89142 0.3614-0.35338 0.12848-0.73886 0.24092-1.15645 0.33729-0.40156 0.0963-0.81917 0.17667-1.25281 0.24093-0.41762 0.0642-0.81916 0.0963-1.20462 0.0963-0.77098-0.00002-1.38132-0.16866-1.83103-0.50595-0.43369-0.32123-0.65052-0.84324-0.65049-1.56602l0-1.97558c-1.3974 1.22069-2.86703 2.15227-4.40894 2.79473-1.52588 0.6264-3.01961 0.93961-4.48121 0.93961-1.89529 0-3.37296-0.28911-4.43302-0.86733-1.06008-0.59429-1.85513-1.4054-2.38516-2.43335-0.51398-1.044-0.83522-2.27272-0.9637-3.68616-0.11244-1.41341-0.17668-2.95534-0.19274-4.62576l0-12.43174M978.7376 846.3065l4.09573-0.50594 0-32.62128-3.8548-0.86733 0-2.09604 7.54095-1.01189 0.9637 0.55413 0 36.04241 4.28847 0.50594 0 2.04787-13.03405 0 0-2.04787"/>
		<path d="m597.13615 840.64476 23.61067-2.89111 0-127.8831-34.98234 1.9274-6.74591 16.47929-8.76968 0.19274 2.40926-29.29651 114.77677 0-0.19274 29.58562-7.90235 0.86733-5.01124-17.92484-34.7896-1.83103 0 127.8831 25.15259 2.89111 0 8.19145-67.55543 0 0-8.19145"/>
	</g>
</svg>
